<?xml version="1.0" standalone="no"?><!DOCTYPE svg PUBLIC "-//W3C//DTD SVG 1.1//EN" "http://www.w3.org/Graphics/SVG/1.1/DTD/svg11.dtd"><svg t="1720490107193" class="icon" viewBox="0 0 1024 1024" version="1.1" xmlns="http://www.w3.org/2000/svg" p-id="3086" xmlns:xlink="http://www.w3.org/1999/xlink" width="200" height="200"><path d="M834 419.82c0-132.82-107.67-240.5-240.5-240.5a240.49 240.49 0 0 0-168.76 411.83 131.62 131.62 0 0 1 36 63.75l12.68 54.22a38.81 38.81 0 0 0 44.3 29.41l178-30.36a38.81 38.81 0 0 0 31.6-31l4.48-23.65a132 132 0 0 1 35-66.89A239.65 239.65 0 0 0 834 419.82z" fill="#FCBFB9" p-id="3087"></path><path d="M443.17 728.58a66.41 66.41 0 0 1-64.54-51.2l-12.69-54.22a104.1 104.1 0 0 0-28.5-50.42 268 268 0 1 1 381.12-5.06 104.32 104.32 0 0 0-27.74 52.93l-4.48 23.65a66.57 66.57 0 0 1-54 53l-178 30.37a66.2 66.2 0 0 1-11.17 0.95z m82.33-559.76A213 213 0 0 0 376 533.55a159.09 159.09 0 0 1 43.47 77.08l12.68 54.23a11.31 11.31 0 0 0 12.9 8.56l178-30.36a11.35 11.35 0 0 0 9.2-9l4.48-23.65A159.2 159.2 0 0 1 679 529.53a212 212 0 0 0 59.5-147.71c0-117.45-95.5-213-213-213zM600 835.09a11.9 11.9 0 0 1 13.65 14c-7.56 37.43-40.43 66.37-79.85 66.37a81.47 81.47 0 0 1-70.31-40.27 11.94 11.94 0 0 1 8.33-17.78c46.41-7.93 92.18-16.47 128.18-22.32zM436.11 824.88a27.5 27.5 0 0 1-4.54-54.62l203.17-34.2a27.5 27.5 0 0 1 9.13 54.24L440.7 824.5a27.6 27.6 0 0 1-4.59 0.38z" fill="#333333" p-id="3088"></path></svg>