<?xml version="1.0" standalone="no"?><!DOCTYPE svg PUBLIC "-//W3C//DTD SVG 1.1//EN" "http://www.w3.org/Graphics/SVG/1.1/DTD/svg11.dtd"><svg t="1720451683113" class="icon" viewBox="0 0 1024 1024" version="1.1" xmlns="http://www.w3.org/2000/svg" p-id="15617" xmlns:xlink="http://www.w3.org/1999/xlink" width="200" height="200"><path d="M512.02649822 935.75240141a15.30785469 15.30785469 0 0 1-11.57567384-5.2976183 15.32008492 15.32008492 0 0 1-3.73625814-9.44765882c-20.0021275-101.95520454-44.4416986-201.11993535-66.01537698-288.65599593-47.11598704-191.17696338-84.33180784-342.18252957-57.60930804-431.91183342 16.9996681-57.08137994 74.21761639-96.94906658 139.1424876-96.94906827 64.92487122 0 122.14078172 39.86768665 139.1424893 96.94906827 26.67358064 89.5703146-10.54224016 240.17840591-57.65618939 430.85190153-21.7061711 87.84792571-46.29657857 187.3612106-66.37820072 289.72408241a15.3282378 15.3282378 0 0 1-3.74644886 9.45173276 15.3221227 15.3221227 0 0 1-11.56752093 5.28538977z m0.2058706-801.68519376c-51.50450981 0-96.67185425 30.88273101-109.83946204 75.10021369-24.34784624 81.76147442 13.80968171 236.59094633 57.99251326 415.87018 16.6164629 67.4218251 34.92473754 141.70670591 51.64515546 219.01239317 16.81825622-77.69908311 35.26513868-152.34882553 52.00390025-220.09270648 44.17875426-178.79003565 82.33424442-333.19961172 58.03531899-414.7919045-13.16760948-44.21544321-58.33495223-75.09817422-109.83742592-75.09817588z" p-id="15618"></path><path d="M512.0326133 934.94726093a15.27727919 15.27727919 0 0 1-11.55529071-5.27112007c-110.57122299-127.50770394-318.05482362-433.23267186-320.36628832-596.01774469-1.019164-71.84296287 23.51620755-121.79426545 72.92735348-148.46580659 18.75874593-10.12642166 38.76495073-15.26097339 59.45807127-15.26097338 29.35602199 0 58.79969154 10.51574194 82.90701608 29.60877559a15.29154887 15.29154887 0 0 1 5.33634668 15.70532792c-20.85618711 83.12103957 16.45135684 234.50981095 59.64967554 409.80207403 21.76732044 88.32693302 46.43722254 188.43744997 66.63910555 291.67680063a15.29562449 15.29562449 0 0 1-8.30007769 16.67761223 15.26708848 15.26708848 0 0 1-6.69591188 1.54505433z m-199.53411477-734.44273937c-15.56672172 0-30.68501332 3.90136255-44.93293614 11.59197966-38.58965395 20.82968889-57.72549164 61.58201066-56.88162442 121.12569333 1.80799863 127.25087302 151.78013116 374.92217837 274.07174922 529.43570952-17.31968613-81.2478143-36.6206282-159.5665504-54.05038281-230.29658498-44.30920752-179.7969711-79.64976356-323.19141314-61.88164727-414.3679314-17.10770043-11.32903533-36.79592498-17.48886782-56.32515858-17.48886613z" p-id="15619"></path><path d="M512.02853602 934.94929873a15.35677382 15.35677382 0 0 1-3.83409641-0.48919803c-68.2921922-17.69270061-165.60000527-76.64322852-260.29875815-157.69128736-94.12190395-80.55478343-164.95793135-164.89474253-189.4871878-225.61454232-21.9181568-54.25421729-17.87411081-102.7175393 12.02410565-144.04467052 19.38043673-26.79180368 48.9362159-41.54523205 83.21887954-41.54523204 19.43751043 0 39.73723339 4.93683403 57.15679727 13.90140822a15.28747159 15.28747159 0 0 1 7.86387607 10.00208182c38.53054242 159.42590476 204.71962515 404.64509973 304.90555946 520.17557933a15.2895094 15.2895094 0 0 1-11.54917563 25.3058609z m-358.37909667-538.80998709c-17.12808353 0-41.17221757 5.01225305-58.44706019 28.89128267-23.65073811 32.69276745-26.41267411 70.20210642-8.44683678 114.67030322 43.47145373 107.60749198 239.02471137 282.3310607 377.317215 346.02070496-47.71525525-60.01249761-99.01389446-133.39439971-143.00919904-205.0355659-46.53506247-75.77897654-106.30703838-184.46678352-130.31652127-276.87852875-11.69185741-4.97148515-24.63525098-7.6681962-37.09759772-7.6681962z" p-id="15620"></path><path d="M511.63310065 934.94929873c-28.35724113-0.00203781-121.49463053-24.51091281-212.03722781-55.80130941-66.41692912-22.95362829-184.56666127-67.92733062-229.62189776-111.26221603-33.34299428-32.06496158-41.68791549-83.88337433-18.59975665-115.51009649 14.82477006-20.31399264 36.02747513-31.04987323 61.31295124-31.04987322 7.37059908 0 15.13663522 0.91521061 23.08000596 2.7252471a15.27727919 15.27727919 0 0 1 8.44072168 5.22627655c89.84548913 109.86596194 260.62488962 246.81928352 371.65269899 275.58215075a15.28747159 15.28747159 0 1 1-3.68529951 30.08778295l-0.54219614 0.0020378zM112.68716967 651.90074675c-15.55245373 0-27.52967804 6.05180014-36.6165509 18.50191671-13.92179134 19.06857325-6.86509353 54.32351954 15.09790679 75.44876778 29.82687642 28.68541207 109.43587374 66.73898498 218.41312328 104.39916198a1949.03641996 1949.03641996 0 0 0 66.39246872 21.62055967c-92.32817333-58.32883713-189.87447196-144.33207524-251.92733703-218.98385545a69.43569437 69.43569437 0 0 0-11.35961086-0.98655069z" p-id="15621"></path><path d="M374.51467299 948.16990463h-0.0040756c-38.80367914 0-66.67579615-3.32247746-82.84178948-9.87163023-22.87821094-9.26624528-37.41150068-33.65078213-33.08412554-55.5098274 3.78110167-19.08895637 15.54226301-31.94062342 33.12081616-36.1885022a15.26708848 15.26708848 0 0 1 8.65882417 0.43620161c96.1785789 33.79142609 188.53325043 57.34024697 211.26470063 57.33820917l0.2466385-0.00203783c7.32779504-0.00815291 13.67515283 5.06320998 15.13255792 12.24424597a15.28747159 15.28747159 0 0 1-9.15617512 17.17904047c-17.6111665 7.25441551-88.60822265 14.37430045-143.33737164 14.37430044z m-79.25228869-70.52620174c-2.88627415 1.56339794-5.39545824 4.56381955-6.68572114 11.08443632-1.32491403 6.69998916 4.62293107 17.2055387 14.56997866 21.23531666 7.0383525 2.84958525 25.66664518 7.63354339 71.36395557 7.63354342 14.98783665 0 30.1896985-0.50958284 44.69852778-1.33714423-37.17505457-10.09788396-80.74027097-23.56920396-123.94674087-38.61615217z" p-id="15622"></path><path d="M511.9673867 934.94726093a15.28747159 15.28747159 0 0 1-14.99598957-18.22470439c20.19984519-103.23323722 44.87178679-203.34375252 66.63706772-291.66660989 43.2003565-175.29837652 80.50993993-326.68918737 59.65171337-409.81226476a15.28747159 15.28747159 0 0 1 5.33634668-15.70532958c24.10732286-19.09303197 53.55099239-29.60877394 82.90905391-29.60877393 20.69108274 0 40.69728752 5.1365912 59.45807123 15.2630112 49.41114592 26.67358064 73.94855696 76.62488323 72.92531569 148.46580659-2.31350418 162.79322574-209.79710483 468.51615584-320.36628832 596.01774469a15.27727919 15.27727919 0 0 1-11.55529071 5.27112007z m143.21099399-716.95183375c17.77015744 91.17855605-17.57243806 234.57707708-61.88164559 414.37608431-17.42975629 70.72595726-36.73069838 149.04265388-54.05038449 230.28843038 122.28958028-154.50945385 272.26171279-402.17872138 274.07174925-529.4357095 0.84590668-59.54164322-18.289931-100.29600445-56.87754713-121.12569336-14.24996228-7.69061713-29.3682522-11.59197966-44.93497392-11.59197965-19.53127309-0.00203781-39.21949764 6.15779299-56.32719812 17.48886782z" p-id="15623"></path><path d="M511.97146398 934.94929873a15.29358668 15.29358668 0 0 1-11.54917563-25.3058609c100.18797211-115.53251741 266.37909433-360.75171239 304.90759725-520.17557933a15.28339428 15.28339428 0 0 1 7.8638761-10.00208182c17.41956389-8.96457253 37.71724903-13.90140655 57.15475945-13.90140822 34.28266363 0 63.83640334 14.75342833 83.22091736 41.54319422 29.89617866 41.32916903 33.93818685 89.79453052 12.02206783 144.04670834-24.52925812 60.71572085-95.36528553 145.05772108-189.48922729 225.61454232-94.69875122 81.05009662-192.00656428 140.0006245-260.29875645 157.69128736a15.31804709 15.31804709 0 0 1-3.83205862 0.48919803z m321.28353675-531.1438304c-24.00744509 92.41378307-83.7834966 201.10159005-130.31855907 276.87852878-43.99938187 71.64524516-95.29190431 145.01899266-143.01123851 205.03760538C698.22178573 822.02992045 893.77504336 647.30635171 937.24649711 539.70089753c17.96379786-44.46819682 15.20186183-81.97753744-8.44683848-114.67234103-17.27688044-23.87699182-41.31897833-28.88924487-58.44909798-28.88924486-12.46030895 0-25.40370085 2.69670939-37.09555992 7.66615669z" p-id="15624"></path><path d="M512.36689935 934.94929873l-0.54423394-0.0020378a15.28747159 15.28747159 0 0 1-3.68529954-30.08778295c111.02576992-28.76082942 281.80720989-165.7161905 371.65473682-275.58215075a15.28339428 15.28339428 0 0 1 8.44072168-5.22627655c7.94337074-1.81003644 15.70736738-2.72524708 23.07796646-2.7252471 25.28547778 0 46.48818115 10.73792003 61.31295289 31.04987322 23.08611936 31.62875996 14.74119982 83.44513325-18.5977188 115.51009649-45.05523648 43.33488538-163.20496862 88.30858771-229.62189776 111.26221603-90.54463506 31.28835879-183.68406563 55.80130942-212.03722781 55.80130941z m387.58835794-282.06200129c-62.05286507 74.65178019-159.60527883 160.65501831-251.93345213 218.98589491a1959.7621098 1959.7621098 0 0 0 66.396546-21.62056134c108.97928734-37.66221481 188.58828634-75.7137499 218.41312328-104.40119977 21.96300032-21.12117091 29.01765866-56.37815669 15.09790679-75.44876778-9.08687286-12.45011658-21.06613501-18.5019167-36.6185904-18.50191671-3.6058049 0-7.41136699 0.33020877-11.35553354 0.98655069z" p-id="15625"></path><path d="M649.49144046 948.16990463c-54.73322461 0-125.7323186-7.11988496-143.34144561-14.37633824-6.77540652-2.79047371-10.61561971-9.99596838-9.1582146-17.17904217s7.82922327-12.30743309 15.13459571-12.24424426l0.24663851 0.00203779c22.7355275 0 115.09223849-23.54882089 211.26877792-57.33820916a15.29154887 15.29154887 0 0 1 8.66086198-0.43620328c17.57651537 4.2499166 29.33767668 17.10362314 33.11470108 36.18850222 4.32941124 21.85904528-10.20387681 46.24358214-33.08616336 55.50982907-16.16599158 6.55119058-44.03810862 9.87366806-82.83975163 9.87366803z m-44.70056563-31.91208738c14.50882933 0.82756141 29.71069118 1.33714425 44.70056563 1.33714422 45.69527088 0 64.32356524-4.78395984 71.35987822-7.63354339 9.95112487-4.03181581 15.9010078-14.53532754 14.57201816-21.23531838-1.2902629-6.51653947-3.79740748-9.52103668-6.68164386-11.08239681-43.20647161 15.04491038-86.77780308 28.52030601-123.95081815 38.61411436z" p-id="15626"></path></svg>