<?xml version="1.0" standalone="no"?><!DOCTYPE svg PUBLIC "-//W3C//DTD SVG 1.1//EN" "http://www.w3.org/Graphics/SVG/1.1/DTD/svg11.dtd"><svg t="1720489607497" class="icon" viewBox="0 0 1024 1024" version="1.1" xmlns="http://www.w3.org/2000/svg" p-id="2470" xmlns:xlink="http://www.w3.org/1999/xlink" width="200" height="200"><path d="M777.92 379.14h-2.12v-50.23a79.7 79.7 0 0 0-79.7-79.71H433.91a79.7 79.7 0 0 0-79.7 79.71v50.23h-2.85A109.36 109.36 0 0 0 242 488.5V718a109.36 109.36 0 0 0 109.36 109.4h426.56A109.36 109.36 0 0 0 887.28 718V488.5a109.36 109.36 0 0 0-109.36-109.36z" fill="#FCBFB9" p-id="2471"></path><path d="M753.36 369.43a27.5 27.5 0 0 1-27.5-27.5V266.2a63.31 63.31 0 0 0-63.24-63.2H364.11a63.31 63.31 0 0 0-63.25 63.24v75.73a27.5 27.5 0 0 1-55 0V266.2A118.38 118.38 0 0 1 364.11 148h298.51a118.37 118.37 0 0 1 118.24 118.2v75.73a27.5 27.5 0 0 1-27.5 27.5z" fill="#333333" p-id="2472"></path><path d="M755.77 879.9H270.12c-83.82 0-152-68.19-152-152V466.55c0-83.82 68.19-152 152-152h485.65c83.82 0 152 68.19 152 152V727.9c0.01 83.81-68.18 152-152 152zM270.12 369.54a97.12 97.12 0 0 0-97 97V727.9a97.11 97.11 0 0 0 97 97h485.65a97.11 97.11 0 0 0 97-97V466.55a97.12 97.12 0 0 0-97-97z" fill="#333333" p-id="2473"></path><path d="M330.6 653.93a27.5 27.5 0 0 1-27.5-27.5V473.91a27.5 27.5 0 1 1 55 0v152.52a27.5 27.5 0 0 1-27.5 27.5zM685.13 653.93a27.5 27.5 0 0 1-27.5-27.5V473.91a27.5 27.5 0 1 1 55 0v152.52a27.5 27.5 0 0 1-27.5 27.5z" fill="#333333" p-id="2474"></path><path d="M870.58 577.67H146.26a27.5 27.5 0 1 1 0-55h724.32a27.5 27.5 0 0 1 0 55z" fill="#333333" p-id="2475"></path></svg>