<?xml version="1.0" standalone="no"?><!DOCTYPE svg PUBLIC "-//W3C//DTD SVG 1.1//EN" "http://www.w3.org/Graphics/SVG/1.1/DTD/svg11.dtd"><svg t="1720488708317" class="icon" viewBox="0 0 1024 1024" version="1.1" xmlns="http://www.w3.org/2000/svg" p-id="2134" xmlns:xlink="http://www.w3.org/1999/xlink" width="200" height="200"><path d="M271 472.74m19.99 0l104.92 0q19.99 0 19.99 19.99l0 201.28q0 19.99-19.99 19.99l-104.92 0q-19.99 0-19.99-19.99l0-201.28q0-19.99 19.99-19.99Z" fill="#18D375" p-id="2135"></path><path d="M457.78 292.81m19.99 0l104.92 0q19.99 0 19.99 19.99l0 383.4q0 19.99-19.99 19.99l-104.92 0q-19.99 0-19.99-19.99l0-383.4q0-19.99 19.99-19.99Z" fill="#18D375" p-id="2136"></path><path d="M644.57 389.16m19.99 0l104.92 0q19.99 0 19.99 19.99l0 283.89q0 19.99-19.99 19.99l-104.92 0q-19.99 0-19.99-19.99l0-283.89q0-19.99 19.99-19.99Z" fill="#18D375" p-id="2137"></path><path d="M831 826.14H242.17a87.35 87.35 0 0 1-87.25-87.25V251.75a35 35 0 0 1 70 0v487.14a17.27 17.27 0 0 0 17.25 17.25H831a35 35 0 0 1 0 70z" fill="#95ED7C" p-id="2138"></path></svg>