<?xml version="1.0" standalone="no"?><!DOCTYPE svg PUBLIC "-//W3C//DTD SVG 1.1//EN" "http://www.w3.org/Graphics/SVG/1.1/DTD/svg11.dtd"><svg t="1720488731506" class="icon" viewBox="0 0 1024 1024" version="1.1" xmlns="http://www.w3.org/2000/svg" p-id="2290" xmlns:xlink="http://www.w3.org/1999/xlink" width="200" height="200"><path d="M495 146m25.5 0l0 0q25.5 0 25.5 25.5l0 136q0 25.5-25.5 25.5l0 0q-25.5 0-25.5-25.5l0-136q0-25.5 25.5-25.5Z" fill="#18D375" p-id="2291"></path><path d="M519 174h106.87A27.13 27.13 0 0 1 653 201.13v42.73A27.13 27.13 0 0 1 625.87 271H519v-97z" fill="#18D375" p-id="2292"></path><path d="M171.85 479m57.64 0l578.72 0q57.64 0 57.64 57.64l0 277.72q0 57.64-57.64 57.64l-578.72 0q-57.64 0-57.64-57.64l0-277.72q0-57.64 57.64-57.64Z" fill="#95ED7C" p-id="2293"></path><path d="M363.67 398.89l61.86-62.08a131.76 131.76 0 0 1 186.63 0L674 398.89a134.13 134.13 0 0 1 39.12 94.68v338.25A40.18 40.18 0 0 1 673 872H364.72a40.18 40.18 0 0 1-40.18-40.18V493.57a134.1 134.1 0 0 1 39.13-94.68z" fill="#18D375" p-id="2294"></path><path d="M520.5 498.5m-89.5 0a89.5 89.5 0 1 0 179 0 89.5 89.5 0 1 0-179 0Z" fill="#FFFFFF" p-id="2295"></path><path d="M479.76 695h81.48A40.76 40.76 0 0 1 602 735.76V872H439V735.76A40.76 40.76 0 0 1 479.76 695z" fill="#95ED7C" p-id="2296"></path></svg>