<?xml version="1.0" standalone="no"?><!DOCTYPE svg PUBLIC "-//W3C//DTD SVG 1.1//EN" "http://www.w3.org/Graphics/SVG/1.1/DTD/svg11.dtd"><svg t="1720489589707" class="icon" viewBox="0 0 1024 1024" version="1.1" xmlns="http://www.w3.org/2000/svg" p-id="2317" xmlns:xlink="http://www.w3.org/1999/xlink" width="200" height="200"><path d="M190.13 344.06m92.59 0l553.69 0q92.59 0 92.59 92.59l0 299.76q0 92.59-92.59 92.59l-553.69 0q-92.59 0-92.59-92.59l0-299.76q0-92.59 92.59-92.59Z" fill="#FCBFB9" p-id="2318"></path><path d="M776 790.63H222.34a120.22 120.22 0 0 1-120.09-120.09V370.78a120.22 120.22 0 0 1 120.09-120.09H776a120.22 120.22 0 0 1 120.12 120.09v299.76A120.22 120.22 0 0 1 776 790.63zM222.34 305.69a65.16 65.16 0 0 0-65.09 65.09v299.76a65.16 65.16 0 0 0 65.09 65.09H776a65.16 65.16 0 0 0 65.09-65.09V370.78A65.16 65.16 0 0 0 776 305.69z" fill="#333333" p-id="2319"></path><path d="M499.19 527.72a180.79 180.79 0 0 1-78.25-17.88l-153.7-73.69A27.5 27.5 0 1 1 291 386.56l153.7 73.69a125.43 125.43 0 0 0 108.93 0l153.7-73.69a27.5 27.5 0 1 1 23.78 49.59l-153.7 73.69a180.78 180.78 0 0 1-78.22 17.88z" fill="#333333" p-id="2320"></path></svg>