<?xml version="1.0" standalone="no"?><!DOCTYPE svg PUBLIC "-//W3C//DTD SVG 1.1//EN" "http://www.w3.org/Graphics/SVG/1.1/DTD/svg11.dtd"><svg t="1720489488402" class="icon" viewBox="0 0 1024 1024" version="1.1" xmlns="http://www.w3.org/2000/svg" p-id="1551" xmlns:xlink="http://www.w3.org/1999/xlink" width="200" height="200"><path d="M328.6 706.37V442.14c0-129.46 105-234.41 234.41-234.41 129.46 0 234.41 105 234.41 234.41v264.23z" fill="#FCBFB9" p-id="1552"></path><path d="M299.18 733.61h-54a101.87 101.87 0 0 1-101.73-101.76V531.62a101.86 101.86 0 0 1 101.76-101.75h54a57.32 57.32 0 0 1 57.27 57.26v189.21a57.33 57.33 0 0 1-57.3 57.27z m-54-248.74a46.8 46.8 0 0 0-46.76 46.75v100.23a46.81 46.81 0 0 0 46.76 46.76h54a2.27 2.27 0 0 0 2.27-2.27V487.13a2.27 2.27 0 0 0-2.27-2.26zM806.69 733.61h-54a57.32 57.32 0 0 1-57.26-57.27V487.13a57.32 57.32 0 0 1 57.26-57.26h54a101.87 101.87 0 0 1 101.76 101.75v100.23a101.88 101.88 0 0 1-101.76 101.76z m-54-248.74a2.26 2.26 0 0 0-2.26 2.26v189.21a2.27 2.27 0 0 0 2.26 2.27h54a46.82 46.82 0 0 0 46.76-46.76V531.62a46.81 46.81 0 0 0-46.76-46.75z" fill="#333333" p-id="1553"></path><path d="M788 454.87a27.5 27.5 0 0 1-27.5-27.5v-16.52a234.68 234.68 0 1 0-469.35 0v16.52a27.5 27.5 0 1 1-55 0v-16.52a289.68 289.68 0 0 1 579.35 0v16.52a27.51 27.51 0 0 1-27.5 27.5zM637.92 898.68h-105a27.5 27.5 0 1 1 0-55h105a122.63 122.63 0 0 0 122.5-122.5 27.5 27.5 0 0 1 55 0c0 97.87-79.62 177.5-177.5 177.5z" fill="#333333" p-id="1554"></path></svg>