<?xml version="1.0" standalone="no"?><!DOCTYPE svg PUBLIC "-//W3C//DTD SVG 1.1//EN" "http://www.w3.org/Graphics/SVG/1.1/DTD/svg11.dtd"><svg t="1720490027286" class="icon" viewBox="0 0 1024 1024" version="1.1" xmlns="http://www.w3.org/2000/svg" p-id="2936" xmlns:xlink="http://www.w3.org/1999/xlink" width="200" height="200"><path d="M906 273.71a25.09 25.09 0 0 0-15.37-1.3L209.14 421.09a24.91 24.91 0 0 0-16.38 11.75c-7.32 12.42-2.11 28.52 10.71 35.12l143.72 79.34L384.6 743a30 30 0 0 0 46.4 19.08l105-71.86L669.32 838a36 36 0 0 0 60-12.17l193-517.93c5.68-15.46-3.47-29.71-16.32-34.19z" fill="#FCBFB9" p-id="2937"></path><path d="M633.91 819.11a63.1 63.1 0 0 1-46-19.92c-0.15-0.15-0.29-0.31-0.43-0.46l-117.25-129.9-85.09 58.28a57.51 57.51 0 0 1-89-36.65l-35-183L129 434.53a53.72 53.72 0 0 1-26.47-32.48 51.55 51.55 0 0 1 5.08-40.84 52.17 52.17 0 0 1 34.2-24.65l681.5-148.68a52.57 52.57 0 0 1 31.16 2.52A54.86 54.86 0 0 1 885 218.33a53.09 53.09 0 0 1 1.53 41.47l-193 517.93a63.17 63.17 0 0 1-46.9 40.08 64.3 64.3 0 0 1-12.72 1.3zM628 761.57a8.55 8.55 0 0 0 14.06-3.05l192.56-516.81-674.51 147.16L299 465.56a27.5 27.5 0 0 1 13.72 18.91l37.41 195.66a2.51 2.51 0 0 0 3.89 1.6L459 609.87a27.49 27.49 0 0 1 35.95 4.26zM835.43 242zM401.17 576.87a27.51 27.51 0 0 1-25.42-38l28.35-69a27.56 27.56 0 0 1 12.22-13.67l255.22-139.9A27.51 27.51 0 0 1 698 364.58L451.28 499.8l-24.66 60a27.52 27.52 0 0 1-25.45 17.07z" fill="#333333" p-id="2938"></path></svg>