<?xml version="1.0" standalone="no"?><!DOCTYPE svg PUBLIC "-//W3C//DTD SVG 1.1//EN" "http://www.w3.org/Graphics/SVG/1.1/DTD/svg11.dtd"><svg t="1720489547104" class="icon" viewBox="0 0 1024 1024" version="1.1" xmlns="http://www.w3.org/2000/svg" p-id="1856" xmlns:xlink="http://www.w3.org/1999/xlink" width="200" height="200"><path d="M650.24 485.33s130.39 10.06 195.22-54.77a125.4 125.4 0 0 0 36.64-89.95 129.63 129.63 0 0 0-38.1-90.49c-50.2-50.22-131-50.92-180.44-1.48-61.51 61.48-55.46 194.66-55.46 194.66 0.9 25.76 18.68 41.49 42.14 42.03zM253.63 250.12a129.63 129.63 0 0 0-38.12 90.49 125.4 125.4 0 0 0 36.64 89.95c64.83 64.83 195.22 54.77 195.22 54.77 23.46-0.54 41.19-16.27 42.14-42 0 0 6-133.18-55.44-194.66-49.44-49.47-130.24-48.77-180.44 1.45zM650.24 604.59c-23.46 0.55-41.2 16.28-42.14 42 0 0-6.05 133.19 55.44 194.67C713 890.73 793.78 890 844 839.81a129.65 129.65 0 0 0 38.12-90.49 125.42 125.42 0 0 0-36.64-90c-64.85-64.78-195.24-54.73-195.24-54.73zM447.37 604.59S317 594.54 252.15 659.36a125.42 125.42 0 0 0-36.64 90 129.65 129.65 0 0 0 38.12 90.49c50.2 50.22 131 50.92 180.44 1.48 61.48-61.48 55.44-194.67 55.44-194.67-0.95-25.79-18.68-41.52-42.14-42.07z" fill="#FCBFB9" p-id="1857"></path><path d="M621.56 460.4c-10.89 0-18.31-0.43-20.67-0.59-38.77-1.23-66.78-29.26-68.27-68.39a452.48 452.48 0 0 1 5-79.49c9.09-60.32 28.78-106 58.52-135.74a151.86 151.86 0 0 1 109.56-44.68 157.67 157.67 0 0 1 155.9 155.82A153.76 153.76 0 0 1 816.91 397c-31.23 31.23-77.53 51.24-137.63 59.49a430.37 430.37 0 0 1-57.72 3.91z m-17.22-55.48a362.1 362.1 0 0 0 68.54-3.05c32.59-4.59 77.28-15.9 105.14-43.75a98.43 98.43 0 0 0 28.58-70.23A102.68 102.68 0 0 0 705.24 186.5 97.38 97.38 0 0 0 635 215.08c-20.8 20.8-35.63 56.79-42.88 104.08a403.73 403.73 0 0 0-4.53 69.93v0.2c0.37 10.24 5.38 15.32 15.29 15.55 0.48 0.01 0.97 0.04 1.46 0.08zM379.9 460.42c-42.79 0-138.59-6.8-195.2-63.41A153.76 153.76 0 0 1 140 287.33a157.67 157.67 0 0 1 155.9-155.82 152 152 0 0 1 109.61 44.68C435.26 205.94 455 251.61 464 311.93a452.58 452.58 0 0 1 5 79.49c-1.49 39.13-29.49 67.15-68.24 68.39-2.52 0.19-9.99 0.61-20.86 0.61zM297.22 186.5h-0.86a101.5 101.5 0 0 0-71.28 30.06 101.5 101.5 0 0 0-30 71.29 98.43 98.43 0 0 0 28.58 70.23c28.09 28.08 73.26 39.37 106.22 43.9a356.3 356.3 0 0 0 67.45 2.9c0.49 0 1-0.07 1.48-0.08 9.91-0.23 14.91-5.31 15.29-15.55v-0.23a403.55 403.55 0 0 0-4.53-69.9c-7.25-47.29-22.08-83.28-42.88-104.08a97.37 97.37 0 0 0-69.47-28.54z m-91.59 10.62zM704.37 852.43a152 152 0 0 1-108.28-44.69C566.35 778 546.66 732.32 537.57 672a452.48 452.48 0 0 1-5-79.49c1.48-39.13 29.49-67.15 68.24-68.39 12.38-0.85 145-8.2 216 62.8A153.76 153.76 0 0 1 861.6 696.6a157.67 157.67 0 0 1-155.9 155.82z m-82.84-273.89c-10.58 0-17.07 0.46-17.21 0.48-0.47 0-1 0.06-1.45 0.07-9.91 0.23-14.92 5.31-15.29 15.55a1.69 1.69 0 0 0 0 0.23 403.55 403.55 0 0 0 4.53 69.9c7.24 47.29 22.07 83.23 42.89 104.07a97.34 97.34 0 0 0 69.41 28.59h0.85A102.66 102.66 0 0 0 806.6 696a98.43 98.43 0 0 0-28.6-70.19c-27.86-27.86-72.55-39.16-105.14-43.75a375.76 375.76 0 0 0-51.33-3.52z m-19.29-26.95zM297.24 852.43h-1.33A157.67 157.67 0 0 1 140 696.6a153.76 153.76 0 0 1 44.7-109.68c31.23-31.23 77.53-51.24 137.63-59.5a414 414 0 0 1 78.39-3.3c38.77 1.23 66.78 29.25 68.27 68.39A452.58 452.58 0 0 1 464 672c-9.09 60.32-28.78 106-58.52 135.74a152 152 0 0 1-108.24 44.69z m82.84-273.89a375.76 375.76 0 0 0-51.35 3.52c-32.59 4.59-77.28 15.89-105.14 43.75A98.43 98.43 0 0 0 195 696a102.66 102.66 0 0 0 101.36 101.42 97.42 97.42 0 0 0 70.27-28.58c20.8-20.8 35.63-56.78 42.88-104.07a403.73 403.73 0 0 0 4.49-69.93v-0.2c-0.38-10.24-5.38-15.32-15.29-15.55-0.49 0-1 0-1.47-0.08s-6.84-0.47-17.16-0.47z" fill="#333333" p-id="1858"></path></svg>