<?xml version="1.0" standalone="no"?><!DOCTYPE svg PUBLIC "-//W3C//DTD SVG 1.1//EN" "http://www.w3.org/Graphics/SVG/1.1/DTD/svg11.dtd"><svg t="1720488192517" class="icon" viewBox="0 0 1024 1024" version="1.1" xmlns="http://www.w3.org/2000/svg" p-id="1359" xmlns:xlink="http://www.w3.org/1999/xlink" width="200" height="200"><path d="M151.030079 245.003811m87.370885-15.641802l371.345951-66.481183q87.370885-15.641802 103.012687 71.729084l77.957008 435.446807q15.641802 87.370885-71.729084 103.012687l-371.34595 66.481184q-87.370885 15.641802-103.012688-71.729084l-77.957007-435.446807q-15.641802-87.370885 71.729083-103.012688Z" fill="#FED54A" p-id="1360"></path><path d="M307.34 244.11m88.76 0l377.25 0q88.76 0 88.76 88.76l0 442.37q0 88.76-88.76 88.76l-377.25 0q-88.76 0-88.76-88.76l0-442.37q0-88.76 88.76-88.76Z" fill="#FF7735" p-id="1361"></path><path d="M721.29 680.35a30 30 0 0 1-27.38-17.72L584.73 419.57 475.54 662.63a30 30 0 1 1-54.73-24.58l116.62-259.62a51.85 51.85 0 0 1 94.59 0l116.62 259.62a30 30 0 0 1-27.35 42.3z" fill="#FFFFFF" p-id="1362"></path><path d="M566.1 588.06h-72.34a30 30 0 0 1 0-60h72.34a30 30 0 0 1 0 60zM759.24 790.09H409.88a30 30 0 0 1 0-60h349.36a30 30 0 0 1 0 60z" fill="#FFFFFF" p-id="1363"></path></svg>