<?xml version="1.0" standalone="no"?><!DOCTYPE svg PUBLIC "-//W3C//DTD SVG 1.1//EN" "http://www.w3.org/Graphics/SVG/1.1/DTD/svg11.dtd"><svg t="1720488182352" class="icon" viewBox="0 0 1024 1024" version="1.1" xmlns="http://www.w3.org/2000/svg" p-id="1203" xmlns:xlink="http://www.w3.org/1999/xlink" width="200" height="200"><path d="M211.25 158m93.49 0l435.02 0q93.49 0 93.49 93.49l0 515.02q0 93.49-93.49 93.49l-435.02 0q-93.49 0-93.49-93.49l0-515.02q0-93.49 93.49-93.49Z" fill="#FF7735" p-id="1204"></path><path d="M313.5 698H793v61.5a61.5 61.5 0 0 1-61.5 61.5h-418a61.5 61.5 0 0 1-61.5-61.5 61.5 61.5 0 0 1 61.5-61.5zM789.56 661a3.43 3.43 0 0 0-3.07 1.87A63 63 0 0 1 730 698h63v-33.56a3.44 3.44 0 0 0-3.44-3.44zM521 571.35a25 25 0 0 1-22.81-14.77l-86.1-191.69L326 556.58a25 25 0 1 1-45.61-20.48l93-207.08a42.43 42.43 0 0 1 77.4 0l93 207.08A25 25 0 0 1 521 571.35z" fill="#FFFFFF" p-id="1205"></path><path d="M397.23 497.74h-57.7a25 25 0 0 1 0-50h57.7a25 25 0 0 1 0 50zM666 571a100 100 0 1 1 100-100 100.11 100.11 0 0 1-100 100z m0-150a50 50 0 1 0 50 50 50.06 50.06 0 0 0-50-50z" fill="#FFFFFF" p-id="1206"></path><path d="M741.5 573a25 25 0 0 1-25-25V394a25 25 0 0 1 50 0v154a25 25 0 0 1-25 25z" fill="#FFFFFF" p-id="1207"></path></svg>