<?xml version="1.0" standalone="no"?><!DOCTYPE svg PUBLIC "-//W3C//DTD SVG 1.1//EN" "http://www.w3.org/Graphics/SVG/1.1/DTD/svg11.dtd"><svg t="1720488222304" class="icon" viewBox="0 0 1024 1024" version="1.1" xmlns="http://www.w3.org/2000/svg" p-id="1826" xmlns:xlink="http://www.w3.org/1999/xlink" width="200" height="200"><path d="M271.83 180H723a102 102 0 0 1 102 102v462.4a102 102 0 0 1-102 102H271.83a59 59 0 0 1-59-59V239a59 59 0 0 1 59-59z" fill="#0D98C9" p-id="1827"></path><path d="M314.25 180H767a59 59 0 0 1 59 59v548.47a59 59 0 0 1-59 59H314.25V180z" fill="#34BCF7" p-id="1828"></path><path d="M648 525m0-24.18l0-243.64q0-24.18 24.18-24.18l76.23 0q24.18 0 24.18 24.18l0 243.64q0 24.18-24.18 24.18l-76.23 0q-24.18 0-24.18-24.18Z" fill="#FFFFFF" p-id="1829"></path><path d="M213 325h144v41H213zM213 658h144v41H213z" fill="#34BCF7" p-id="1830"></path></svg>