<?xml version="1.0" standalone="no"?><!DOCTYPE svg PUBLIC "-//W3C//DTD SVG 1.1//EN" "http://www.w3.org/Graphics/SVG/1.1/DTD/svg11.dtd"><svg t="1720451101686" class="icon" viewBox="0 0 1024 1024" version="1.1" xmlns="http://www.w3.org/2000/svg" p-id="12315" xmlns:xlink="http://www.w3.org/1999/xlink" width="200" height="200"><path d="M651.776 512c7.168 0 12.8-5.632 12.8-12.8v-25.6c0-7.168-5.632-12.8-12.8-12.8h-96.256L660.48 349.184c4.608-5.12 4.608-12.8 0-17.92l-16.384-17.92c-4.608-5.12-11.776-5.12-16.384 0L512 437.76 396.288 313.344c-4.608-5.12-11.776-5.12-16.384 0L363.52 330.752c-4.608 5.12-4.608 12.8 0 17.92l104.448 112.64H372.224c-7.168 0-12.8 5.632-12.8 12.8v25.6c0 7.168 5.632 12.8 12.8 12.8H486.4v50.688H372.224c-7.168 0-12.8 5.632-12.8 12.8v25.6c0 7.168 5.632 12.8 12.8 12.8H486.4v89.088c0 7.168 5.632 12.8 12.8 12.8h25.6c7.168 0 12.8-5.632 12.8-12.8V614.4h114.688c7.168 0 12.8-5.632 12.8-12.8v-25.6c0-7.168-5.632-12.8-12.8-12.8H537.6v-51.2h114.176z" p-id="12316"></path><path d="M944.64 410.112c24.576-16.384 25.6-29.184 25.6-50.688V206.336c0-41.984-34.304-76.288-76.288-76.288H130.048c-41.984 0-76.288 34.304-76.288 76.288v152.576c0 23.04 1.536 37.888 25.6 50.688 34.816 16.384 76.288 49.152 76.288 101.888 0 68.608-43.008 91.136-74.752 101.888-22.528 13.824-27.136 36.864-27.136 51.2v152.576c0 41.984 34.304 76.288 76.288 76.288h521.728c13.824 0 25.6-11.264 25.6-25.6 0-13.824-11.264-25.6-25.6-25.6h-496.64c-28.16 0-50.688-23.04-50.688-50.688V655.36c59.392-20.992 101.888-76.8 101.888-143.36S163.84 389.632 104.448 368.64V231.936c0-28.16 23.04-50.688 50.688-50.688h712.704c28.16 0 50.688 23.04 50.688 50.688V368.64c-59.392 20.992-101.888 76.8-101.888 143.36s42.496 122.368 101.888 143.36v136.704c0 28.16-23.04 50.688-50.688 50.688h-71.68c-13.824 0-25.6 11.264-25.6 25.6 0 13.824 11.264 25.6 25.6 25.6h96.768c41.984 0 76.288-34.304 76.288-76.288v-152.576c0-27.648-6.144-36.864-25.6-50.688-55.808-28.672-76.288-54.272-76.288-101.888 1.024-48.128 20.48-71.68 77.312-102.4z" p-id="12317"></path></svg>